# AST/ASF file generated using VICON BodyLanguage
# -----------------------------------------------
:version 1.10
:name VICON
:units
  mass 1.0
  length 0.45
  angle deg
:documentation
   .ast/.asf automatically generated from VICON data using
   VICON BodyBuilder and BodyLanguage model FoxedUp or BRILLIANT.MOD
:root
   order TX TY TZ RX RY RZ
   axis XYZ
   position 0 0 0  
   orientation 0 0 0 
:bonedata
  begin
     id 1 
     name lhipjoint
     direction 0.625129 -0.738222 0.253461 
     length 2.5165 
     axis 0 0 0  XYZ
  end
  begin
     id 2 
     name lfemur
     direction 0.34202 -0.939693 0  
     length 7.54288  
     axis 0 0 20  XYZ
    dof rx ry rz
    limits (-160.0 20.0)
           (-70.0 70.0)
           (-60.0 70.0)
  end
  begin
     id 3 
     name ltibia
     direction 0.34202 -0.939693 0   
     length 7.71864   
     axis 0 0 20   XYZ
    dof rx
    limits (-10.0 170.0)
  end
  begin
     id 4 
     name lfoot
     direction 0.0772037 -0.212115 0.97419   
     length 2.18429   
     axis -90 7.62852e-016 20   XYZ
    dof rx rz
    limits (-45.0 90.0)
           (-70.0 20.0)
  end
  begin
     id 5 
     name ltoes
     direction 1.53513e-011 -4.21834e-011 1   
     length 1.09718   
     axis -90 7.62852e-016 20   XYZ
    dof rx
    limits (-90.0 20.0)
  end
  begin
     id 6 
     name rhipjoint
     direction -0.621946 -0.740623 0.254285   
     length 2.50835  
     axis 0 0 0  XYZ 
  end
  begin
     id 7 
     name rfemur
     direction -0.34202 -0.939693 0   
     length 7.43366   
     axis 0 0 -20   XYZ
    dof rx ry rz
    limits (-160.0 20.0)
           (-70.0 70.0)
           (-70.0 60.0)
  end
  begin
     id 8 
     name rtibia
     direction -0.34202 -0.939693 0   
     length 7.77122   
     axis 0 0 -20   XYZ
    dof rx
    limits (-10.0 170.0)
 end
 begin
     id 9 
     name rfoot
     direction -0.082694 -0.2272 0.970331   
     length 2.2293  
     axis -90 -7.62852e-016 -20   XYZ
    dof rx rz
    limits (-45.0 90.0)
           (-20.0 70.0)
  end
  begin
     id 10 
     name rtoes
     direction -1.53565e-011 -4.21695e-011 1   
     length 1.1178   
     axis -90 -7.62852e-016 -20   XYZ
    dof rx
    limits (-90.0 20.0)
  end
  begin
     id 11 
     name lowerback
     direction -0.000695208 0.988391 -0.151929   
     length 1.95077   
     axis 0 0 0   XYZ
    dof rx ry rz
    limits (-20.0 45.0)
           (-30.0 30.0)
           (-30.0 30.0)
  end
  begin
     id 12 
     name upperback
     direction -0.00268925 0.999885 -0.0149203   
     length 1.96246   
     axis 0 0 0   XYZ
    dof rx ry rz
    limits (-20.0 45.0)
           (-30.0 30.0)
           (-30.0 30.0)
  end
  begin
     id 13 
     name thorax
     direction -0.000848408 0.998481 0.0550912   
     length 2.00867   
     axis 0 0 0   XYZ
    dof rx ry rz
    limits (-20.0 45.0)
           (-30.0 30.0)
           (-30.0 30.0)
  end
  begin
     id 14 
     name lowerneck
     direction -0.00577709 0.998999 0.0443608   
     length 1.75762   
     axis 0 0 0   XYZ
    dof rx ry rz
    limits (-20.0 45.0)
           (-30.0 30.0)
           (-30.0 30.0)
  end
  begin
     id 15 
     name upperneck
     direction 0.0320945 0.999136 0.0264105   
     length 1.72601   
     axis 0 0 0   XYZ
    dof rx ry rz
    limits (-20.0 45.0)
           (-30.0 30.0)
           (-30.0 30.0)
  end
  begin
     id 16
     name head
     direction 0.0120552 0.999916 0.00480151  
     length 1.79973  
     axis 0 0 0   XYZ
    dof rx ry rz
    limits (-20.0 45.0)
           (-30.0 30.0)
           (-30.0 30.0)
  end
  begin
     id 17 
     name lclavicle
     direction 0.909 0.371533 -0.188897  
     length 3.47956  
     axis 0 0 0   XYZ
    dof ry rz
    limits (-20.0 10.0)
           (0.0 20.0)
  end
  begin
     id 18 
     name lhumerus
     direction 1 -4.48963e-011 -6.48352e-028   
     length 5.52302   
     axis 180 -30 -90   XYZ
    dof rx ry rz
    limits (-60.0 90.0)
           (-90.0 90.0)
           (-90.0 90.0)
  end
  begin
     id 19
     name lradius
     direction 1 -4.48968e-011 -4.78536e-027   
     length 3.58675   
     axis 180 -30 -90   XYZ
    dof rx
    limits (-10.0 170.0)
  end
  begin
     id 20
     name lwrist
     direction 1 -4.48942e-011 -9.9435e-027   
     length 1.79337   
     axis 8.54312e-015 90 90   XYZ
    dof ry
    limits (-180.0 0.0)
 end
  begin
     id 21 
     name lhand
     direction 1 -4.4904e-011 -1.9887e-026   
     length 0.536412   
     axis 1.26896e-014 90 90   XYZ
    dof rx rz
    limits (-90.0 90.0)
           (-45.0 45.0)
  end
  begin
     id 22 
     name lfingers
     direction 1 -4.48893e-011 -3.9774e-026   
     length 0.432469   
     axis 2.53792e-014 90 90   XYZ
    dof rx
    limits (0.0 90.0)
  end
  begin
     id 23
     name lthumb
     direction 0.707107 -6.34934e-011 0.707107   
     length 0.620942   
     axis -90 45 2.85299e-015   XYZ
    dof rx rz
    limits (-45.0 45.0)
           (-45.0 45.0)
  end
  begin
     id 24 
     name rclavicle
     direction -0.89595 0.416672 -0.153813   
     length 3.44099  
     axis 0 0 0   XYZ 
    dof ry rz
    limits (-10.0 20.0)
           (-20.0 0.0)
  end
  begin
     id 25 
     name rhumerus
     direction -1 -4.48952e-011 5.57804e-028  
     length 5.8478   
     axis 180 30 90   XYZ
    dof rx ry rz
    limits (-90.0 60.0)
           (-90.0 90.0)
           (-90.0 90.0)
  end
  begin
     id 26 
     name rradius
     direction -1 -4.48967e-011 -7.93646e-027   
     length 3.62717   
     axis 180 30 90   XYZ
    dof rx
    limits (-10.0 170.0)
  end
  begin
     id 27 
     name rwrist
     direction -1 -4.49008e-011 -9.9435e-027   
     length 1.81359   
     axis 8.54312e-015 -90 -90   XYZ
    dof ry
    limits (-180.0 0.0)
  end
  begin
     id 28
     name rhand
     direction -1 -4.48812e-011 -1.9887e-026   
     length 0.650516   
     axis 1.26896e-014 -90 -90   XYZ
    dof rx rz
    limits (-90.0 90.0)
           (-45.0 45.0)
  end
  begin
     id 29
     name rfingers
     direction -1 -4.49228e-011 -3.9774e-026   
     length 0.524463   
     axis 2.53792e-014 -90 -90   XYZ
    dof rx
    limits (0.0 90.0)
  end
  begin
     id 30
     name rthumb
     direction -0.707107 -6.34912e-011 0.707107   
     length 0.753027   
     axis -90 -45 -2.85299e-015   XYZ
    dof rx rz
    limits (-45.0 45.0)
           (-45.0 45.0)
  end
:hierarchy
  begin
    root lhipjoint rhipjoint lowerback
    lhipjoint lfemur
    lfemur ltibia
    ltibia lfoot
    lfoot ltoes
    rhipjoint rfemur
    rfemur rtibia
    rtibia rfoot
    rfoot rtoes
    lowerback upperback
    upperback thorax
    thorax lowerneck lclavicle rclavicle
    lowerneck upperneck
    upperneck head
    lclavicle lhumerus
    lhumerus lradius
    lradius lwrist
    lwrist lhand lthumb
    lhand lfingers
    rclavicle rhumerus
    rhumerus rradius
    rradius rwrist
    rwrist rhand rthumb
    rhand rfingers
  end

#!OML:ASF F:\VICON\USERDATA\INSTALL\rory3\rory3.ASF
:FULLY-SPECIFIED
:DEGREES
17
root -0.00808088 18.0401 -19.3107 5.47686 -0.458887 0.503141
lowerback 15.0408 -3.7358 -5.11701
upperback -0.354594 -5.91747 -0.648235
thorax -8.36509 -2.64816 3.46063
lowerneck -5.74625 1.57211 -1.51168
upperneck -5.43996 2.2558 3.15305
head -0.777995 1.13853 1.24612
rclavicle 2.64384e-014 -2.54444e-014
rhumerus -64.4936 9.31204 -89.8546
rradius 89.1047
rwrist -0.775499
rhand -41.2744 34.5019
rfingers 7.12502
rthumb -14.196 5.00696
lclavicle 2.64384e-014 -2.54444e-014
lhumerus -10.9115 -22.8692 82.6671
lradius 128.025
lwrist 27.227
lhand -37.3729 -12.6751
lfingers 7.12502
lthumb -10.4344 17.046
rfemur -42.8103 1.57773 20.7264
rtibia 67.0769
rfoot -1.43727 -2.52329
rtoes -8.03586
lfemur 18.6456 -1.99972 -25.2799
ltibia 16.0635
lfoot 19.9809 2.7916
ltoes -23.4693
18
root -0.0058272 18.1118 -18.7388 5.62357 -0.788973 0.356579
lowerback 14.206 -3.73357 -4.86665
upperback -0.117917 -5.80809 -0.612252
thorax -7.66684 -2.63963 3.25536
lowerneck -6.67084 1.53604 -1.02595
upperneck -4.90378 2.15937 2.68921
head -0.447401 1.09277 1.02617
rclavicle -4.39314e-014 -1.74931e-014
rhumerus -64.4611 8.92765 -89.5594
rradius 89.3172
rwrist -1.47305
rhand -40.5182 34.5208
rfingers 7.12502
rthumb -13.4673 4.97623
lclavicle -4.39314e-014 -1.74931e-014
lhumerus -10.5605 -23.4301 82.3775
lradius 128.437
lwrist 28.3733
lhand -35.8531 -16.1177
lfingers 7.12502
lthumb -8.96804 13.6717
rfemur -42.3587 2.35841 20.7524
rtibia 62.0691
rfoot -1.96507 -3.03216
rtoes -8.43574
lfemur 21.1153 -2.47937 -25.3317
ltibia 13.103
lfoot 29.5468 5.28248
ltoes -4.58332
19
root -0.00860858 18.1876 -18.176 5.89196 -0.969507 0.205161
lowerback 13.3932 -3.82267 -4.724
upperback -0.0140124 -5.84426 -0.499181
thorax -7.09606 -2.68658 3.2276
lowerneck -7.05734 1.66943 -0.591336
upperneck -4.67765 2.29426 2.22248
head -0.308183 1.15645 0.814725
rclavicle 1.33186e-013 7.95139e-016
rhumerus -64.5421 8.74899 -89.287
rradius 89.6494
rwrist -2.10887
rhand -40.1455 34.6093
rfingers 7.12502
rthumb -13.1081 5.04125
lclavicle 1.33186e-013 7.95139e-016
lhumerus -10.5816 -23.9826 82.2518
lradius 128.875
lwrist 28.9419
lhand -34.2822 -16.2634
lfingers 7.12502
lthumb -7.452 13.5854
rfemur -41.8801 3.13035 20.7381
rtibia 56.892
rfoot -2.25446 -3.54955
rtoes -8.3461
lfemur 23.3605 -3.12221 -25.3455
ltibia 10.3234
lfoot 29.7391 6.86666
ltoes -16.12
20
root -0.00508154 18.2539 -17.6174 6.10349 -1.31181 0.286941
lowerback 13.2955 -3.8158 -4.70491
upperback -0.441091 -5.84372 -0.462652
thorax -7.49902 -2.66524 3.26963
lowerneck -6.61858 1.79118 -0.290784
upperneck -4.29339 2.42571 1.8449
head -0.255786 1.21734 0.647795
rclavicle 1.38155e-014 4.77083e-015
rhumerus -65.4996 8.5813 -89.0624
rradius 90.2218
rwrist -2.96979
rhand -39.3075 34.7839
rfingers 7.12502
rthumb -12.3001 5.16567
lclavicle 1.38155e-014 4.77083e-015
lhumerus -11.6202 -24.6695 82.6424
lradius 129.198
lwrist 28.9804
lhand -35.3102 -6.58262
lfingers 7.12502
lthumb -8.44416 23.2286
rfemur -41.2498 3.88072 20.4178
rtibia 51.6227
rfoot -1.80693 -3.89371
rtoes -8.03886
lfemur 25.436 -3.58747 -25.7157
ltibia 8.18635
lfoot 32.5353 7.79326
ltoes -14.8062
21
root 0.00446322 18.3138 -17.064 6.32879 -1.62568 0.336593
lowerback 13.3746 -3.78254 -4.46787
upperback -0.938604 -5.79077 -0.480686
thorax -8.11148 -2.61938 3.14295
lowerneck -6.44154 1.89205 -0.129334
upperneck -3.34594 2.53586 1.63843
head 0.00816577 1.27505 0.564769
rclavicle -2.5842e-015 1.59028e-015
rhumerus -66.4966 8.26839 -88.8715
rradius 90.7352
rwrist -3.43157
rhand -38.6773 34.9843
rfingers 7.12502
rthumb -11.6925 5.33061
lclavicle -2.5842e-015 1.59028e-015
lhumerus -12.8635 -25.3068 83.1414
lradius 129.302
lwrist 29.0579
lhand -37.6892 4.19867
lfingers 7.12502
lthumb -10.7395 33.9042
rfemur -40.5072 4.69679 20.0457
rtibia 46.3023
rfoot -1.08788 -4.64983
rtoes -5.98396
lfemur 27.0099 -4.0435 -26.1421
ltibia 7.13161
lfoot 33.7361 7.99673
ltoes -16.0894
22
root 0.0129032 18.3674 -16.5143 6.52817 -1.63229 0.490018
lowerback 13.2002 -3.8738 -4.32823
upperback -1.15271 -5.89223 -0.500464
thorax -8.25264 -2.66774 3.05985
lowerneck -6.49351 2.07707 0.0774922
upperneck -2.74075 2.75974 1.39386
head 0.205675 1.38736 0.466471
rclavicle -8.94531e-015 -5.56597e-015
rhumerus -66.8944 8.10354 -88.7478
rradius 91.0812
rwrist -3.54639
rhand -38.7127 35.1683
rfingers 7.12502
rthumb -11.7266 5.51657
lclavicle -8.94531e-015 -5.56597e-015
lhumerus -13.945 -26.002 83.6209
lradius 129.399
lwrist 28.3188
lhand -38.1803 4.79793
lfingers 7.12502
lthumb -11.2131 34.4783
rfemur -39.5834 5.36983 19.5592
rtibia 41.0502
rfoot -0.437081 -5.97166
rtoes -6.81631
lfemur 27.7684 -4.77537 -26.7362
ltibia 7.78158
lfoot 36.5609 7.43892
ltoes -6.50064
23
root 0.0199731 18.4043 -15.9678 6.62463 -1.28863 0.833398
lowerback 13.0442 -4.06422 -4.30296
upperback -1.25442 -6.14392 -0.568253
thorax -8.26553 -2.79115 3.01207
lowerneck -6.25174 2.17977 0.354142
upperneck -2.96614 2.88107 1.10901
head 0.103076 1.44157 0.331565
rclavicle 5.99336e-014 -1.59028e-015
rhumerus -67.0356 7.90885 -88.6359
rradius 91.3773
rwrist -3.54008
rhand -39.1032 35.0144
rfingers 7.12502
rthumb -12.1031 5.38443
lclavicle 5.99336e-014 -1.59028e-015
lhumerus -15.0589 -26.8502 84.1905
lradius 129.336
lwrist 26.6581
lhand -35.6881 -7.88569
lfingers 7.12502
lthumb -8.80879 21.9105
rfemur -38.5012 5.72169 18.9336
rtibia 36.0085
rfoot 0.269681 -7.65084
rtoes -9.80257
lfemur 27.8915 -5.83997 -27.5577
ltibia 9.97979
lfoot 36.6196 6.20263
ltoes -0.623361
24
root 0.0284674 18.4174 -15.4271 6.60138 -1.16209 1.13773
lowerback 12.9415 -4.14429 -4.22492
upperback -1.23517 -6.2426 -0.693506
thorax -8.20149 -2.84847 2.84445
lowerneck -6.16449 2.15899 0.659156
upperneck -3.26316 2.83521 0.837266
head 0.00571798 1.41205 0.195475
rclavicle 3.08116e-015 -1.11319e-014
rhumerus -67.0429 7.62002 -88.465
rradius 91.7292
rwrist -3.47531
rhand -39.1236 35.0498
rfingers 7.12502
rthumb -12.1228 5.42104
lclavicle 3.08116e-015 -1.11319e-014
lhumerus -15.9382 -27.6094 84.6551
lradius 128.995
lwrist 25.1242
lhand -36.6897 -0.837129
lfingers 7.12502
lthumb -9.7753 28.916
rfemur -37.3572 6.15973 18.3825
rtibia 31.3548
rfoot 0.686407 -9.06563
rtoes -12.2131
lfemur 27.646 -6.66848 -28.3917
ltibia 13.1572
lfoot 34.4761 5.02201
ltoes 4.01945
25
root 0.0344358 18.4185 -14.8833 6.53504 -1.33485 1.60384
lowerback 12.7007 -4.07456 -4.41845
upperback -1.08278 -6.17235 -0.845799
thorax -7.90173 -2.82304 2.74786
lowerneck -6.41271 2.15004 0.809924
upperneck -3.29414 2.80832 0.604608
head 0.0417905 1.39601 0.103444
rclavicle 5.77469e-014 3.97569e-015
rhumerus -66.7622 7.38665 -88.2274
rradius 92.0615
rwrist -3.43745
rhand -39.4044 35.3865
rfingers 7.12502
rthumb -12.3936 5.77394
lclavicle 5.77469e-014 3.97569e-015
lhumerus -16.6745 -28.2268 85.1336
lradius 128.66
lwrist 24.177
lhand -36.8771 2.49105
lfingers 7.12502
lthumb -9.95609 32.2356
rfemur -36.2329 6.77214 17.6591
rtibia 27.2753
rfoot 0.481346 -10.0875
rtoes -12.4278
lfemur 27.0343 -7.21185 -29.4491
ltibia 17.0337
lfoot 32.4485 4.38821
ltoes 0.264122
26
root 0.0394078 18.4187 -14.3448 6.45343 -1.38824 2.1455
lowerback 12.6287 -4.01794 -4.66282
upperback -0.941131 -6.13645 -1.01172
thorax -7.70425 -2.80808 2.6874
lowerneck -6.79173 2.16823 0.723559
upperneck -3.21406 2.83321 0.654915
head 0.126193 1.41063 0.138387
rclavicle 2.48481e-015 1.74931e-014
rhumerus -66.2859 7.10093 -88.075
rradius 92.3311
rwrist -3.48286
rhand -40.0042 35.7815
rfingers 7.12502
rthumb -12.9718 6.20476
lclavicle 2.48481e-015 1.74931e-014
lhumerus -17.6312 -28.2513 85.6578
lradius 128.195
lwrist 25.1822
lhand -35.6655 1.35451
lfingers 7.12502
lthumb -8.78706 31.1516
rfemur -35.1259 7.15474 16.9592
rtibia 23.8704
rfoot 0.168487 -10.7956
rtoes -12.754
lfemur 26.1592 -7.90058 -30.5344
ltibia 21.3444
lfoot 31.527 4.06723
ltoes -8.8557
